inDegrees=no
num_controls=7
num_derivatives=13
num_iterations=142
num_multipliers=7
num_parameters=0
num_slacks=7
num_states=26
objective=0.545133
objective_accelerations=0.042087
objective_balance=0.003878
objective_effort=0.041070
objective_height=0.448644
objective_ligament=0.009453
solver_duration=1709.147549
status=Solve_Succeeded
success=true
DataType=double
version=3
OpenSimVersion=4.5
endheader
time	/jointset/ground_pelvis/pelvis_tilt/value	/jointset/ground_pelvis/pelvis_tx/value	/jointset/ground_pelvis/pelvis_ty/value	/jointset/hip_r/hip_flexion_r/value	/jointset/hip_r/hip_adduction_r/value	/jointset/hip_r/hip_rotation_r/value	/jointset/back/lumbar_extension/value	/jointset/patellofemoral_r/patellar_flexion_r/value	/jointset/knee_r/knee_flexion_r/value	/jointset/knee_r/knee_adduction_r/value	/jointset/knee_r/knee_rotation_r/value	/jointset/ankle_r/ankle_angle_r/value	/jointset/subtalar_r/subtalar_angle_r/value	/jointset/ground_pelvis/pelvis_tilt/speed	/jointset/ground_pelvis/pelvis_tx/speed	/jointset/ground_pelvis/pelvis_ty/speed	/jointset/hip_r/hip_flexion_r/speed	/jointset/hip_r/hip_adduction_r/speed	/jointset/hip_r/hip_rotation_r/speed	/jointset/back/lumbar_extension/speed	/jointset/patellofemoral_r/patellar_flexion_r/speed	/jointset/knee_r/knee_flexion_r/speed	/jointset/knee_r/knee_adduction_r/speed	/jointset/knee_r/knee_rotation_r/speed	/jointset/ankle_r/ankle_angle_r/speed	/jointset/subtalar_r/subtalar_angle_r/speed	/forceset/tau_hip_flexion_r	/forceset/tau_hip_adduction_r	/forceset/tau_hip_rotation_r	/forceset/tau_knee_flexion_r	/forceset/tau_ankle_angle_r	/forceset/tau_subtalar_angle_r	/forceset/tau_lumbar_extension	lambda_cid13_p0	lambda_cid14_p0	lambda_cid14_p1	lambda_cid14_p2	lambda_cid14_p3	lambda_cid14_p4	lambda_cid14_p5	/jointset/ground_pelvis/pelvis_tilt/accel	/jointset/ground_pelvis/pelvis_tx/accel	/jointset/ground_pelvis/pelvis_ty/accel	/jointset/hip_r/hip_flexion_r/accel	/jointset/hip_r/hip_adduction_r/accel	/jointset/hip_r/hip_rotation_r/accel	/jointset/back/lumbar_extension/accel	/jointset/patellofemoral_r/patellar_flexion_r/accel	/jointset/knee_r/knee_flexion_r/accel	/jointset/knee_r/knee_adduction_r/accel	/jointset/knee_r/knee_rotation_r/accel	/jointset/ankle_r/ankle_angle_r/accel	/jointset/subtalar_r/subtalar_angle_r/accel	gamma_cid13_p0	gamma_cid14_p0	gamma_cid14_p1	gamma_cid14_p2	gamma_cid14_p3	gamma_cid14_p4	gamma_cid14_p5
1.5	-0.2346479432945348	0.002826634848394971	0.8474768276752701	0.8847112503133024	-0.225342131528473	-0.1423002368168999	-0.3067910219425931	0.6527457981815569	0.6527457981812842	0.03678320090567037	0.1745320208359879	0.169931451862886	0.03672370900961812	0.574680845963466	0.2429770715322713	0.4066455283100566	-2.011900502515806	0.01191093600531124	-0.2913117815155167	0.6946459826460005	-1.743585538668663	-1.743585538668659	0.2761577774209542	-1.665404861867814e-05	-0.3865982458714	-0.084203351376729	-0.1483430284641629	-0.02096651470262576	0.007775311073761799	-0.2923378784495247	0.1091996989389042	-0.009585695769326176	0.1790684403479561	-33.94585561123951	-6.579541949639899	-0.9811584013325656	-4.334009501194164	-2.614130270536296	-658.6505121877002	58.10312419897293	0.2877516224661008	0.547453228661422	-0.4479265738097405	-1.196899867506901	0.006432846248442535	-0.5118074994636309	1.685072782040122	-1.112088283515812	-1.112088283515827	0.4505314291244834	0.004313934845269174	-0.3241641856027275	-0.04268186109364834	1.299722974520486e-07	1.880923660820794e-07	-4.389145390781586e-07	1.259112654026385e-06	-6.141746441524884e-08	2.602880405461005e-07	-4.481323186152587e-07
1.51	-0.2288872599706199	0.005283484024680416	0.8515200216879528	0.8645345937086395	-0.2252236390583665	-0.145237748735041	-0.299761613964818	0.635256676771131	0.6352566767710982	0.03956957690746038	0.1745321239285115	0.1660495468632441	0.035878467948311	0.5773737284806657	0.2483584045237911	0.4019052322938658	-2.023150372047885	0.01178607021072355	-0.2961654280534273	0.7111324958308055	-1.753985723420194	-1.753985723420191	0.2811057277647216	2.545617396521022e-05	-0.3897224093393082	-0.08482995006354592	-0.1403500784523438	-0.02248757531701651	0.0071509079433241	-0.2895525357066979	0.1111519075516506	-0.01022035951551599	0.1721665121497644	-34.85654276694208	-5.749326032966346	-1.017031229815586	-4.4361138314195	-2.811866187871915	-654.3660589089778	58.14856108748917	0.2477631379105264	0.5283072053493885	-0.5002303313967176	-1.046937279357976	-0.02202683496734128	-0.4681431933834805	1.614973024969716	-0.9660585372821524	-0.9660585372822338	0.5151656660475284	0.002641404495723649	-0.2974821216408508	-0.07033499654153959	1.364775948050543e-07	1.950573972435511e-07	-4.795417789045123e-07	1.305829089666376e-06	-6.130328997676816e-08	2.768421993776085e-07	-4.941486174919918e-07
1.52	-0.2231021065072202	0.007793113305071484	0.8555131828972991	0.8442538570519957	-0.2251064113547371	-0.148222997111047	-0.2925704343675412	0.6176711385199275	0.6176711385201348	0.04240508017849687	0.1745323444909667	0.1621382122900719	0.03502742367532253	0.5795748738604097	0.2535330923533959	0.3966389676427564	-2.032716512911947	0.01165798270993727	-0.3008590730884864	0.7270003065463722	-1.762868906824139	-1.762868906824136	0.2859832312702754	6.839937780069833e-06	-0.3924841605774556	-0.08536399371299586	-0.1323571284405255	-0.02400863593140745	0.006526504812887746	-0.2867671929638713	0.1131041161643969	-0.01085502326170609	0.165264583951572	-35.73560762090969	-4.926694316936244	-1.050771620078272	-4.542511634037884	-3.009577404650528	-650.2051443188391	58.27425622863529	0.1894041949749485	0.5061241962784422	-0.5531203007934425	-0.8601541339035306	0.005788505008723365	-0.4798071988933542	1.56133228819248	-0.8086880139984057	-0.8086880139984066	0.436442061481771	-0.007831356908537958	-0.2516817396505461	-0.02417085362025015	1.447653567953819e-07	1.979857008054663e-07	-5.649780407527239e-07	1.325282826094409e-06	-5.401805148249163e-08	2.911293972445685e-07	-5.520925655570194e-07
1.53	-0.2172974452060764	0.0103534224550332	0.8594511194671962	0.8238858847110269	-0.2249905400092962	-0.1512547947908181	-0.2852238022297821	0.6000043618311037	0.6000043618312482	0.04528888150300913	0.1745324474351349	0.1582010875093241	0.03417144603798342	0.5812691754988599	0.2584903357531225	0.3908668514701303	-2.040589305637649	0.01151629860796079	-0.3054822701806522	0.7422100514565051	-1.770227798195906	-1.770227798195904	0.2907557702900391	9.095766242168875e-06	-0.3948757386738338	-0.08581387104289266	-0.1241758216838907	-0.02585616339191583	0.005920996500403774	-0.2843744855564319	0.1155771098487029	-0.0116254339199829	0.1582226615065527	-36.57845351020092	-3.954587754442648	-1.120733936037798	-4.639205617240845	-3.292071613045974	-646.2297061525907	58.41086083913336	0.1462311468466652	0.4847579020697291	-0.6014196320465193	-0.7075185022186216	-0.0240349493167003	-0.4506034960065234	1.483385160084002	-0.6607268666062001	-0.66072686660625	0.4944258864514455	0.003809277719996946	-0.2231224475307673	-0.05271408659447573	1.54946987462864e-07	1.966249812928527e-07	-6.980238884991592e-07	1.315769944609737e-06	-3.911355742893211e-08	3.030079490866959e-07	-6.227096408846095e-07
1.54	-0.2114784832888347	0.01296215073704216	0.8633289024040574	0.8034478491107379	-0.2248760631211783	-0.1543322299478365	-0.2777285547293897	0.5822717487949939	0.5822717487950758	0.0482197614305644	0.1745324839825877	0.1542420016270327	0.03331150604456132	0.5824349970799747	0.2632169187628468	0.3846082410355305	-2.046729164775953	0.01137909124534969	-0.3099865685379518	0.7567233790730504	-1.776036176281287	-1.776036176281284	0.2953989518789142	-6.439405439235472e-06	-0.3968763808861842	-0.08615646492959271	-0.1159945149272569	-0.02770369085242448	0.005315488187922886	-0.2819817781489926	0.1180501035330089	-0.01239584457826012	0.1511807390615327	-37.38049016969936	-2.990737375438431	-1.188575187953461	-4.740312588184603	-3.572043811213163	-642.388217973255	58.63240850277905	0.08370818350787652	0.4599921182779485	-0.6504191531882061	-0.5135674164237806	0.00668385288179844	-0.4560274519201553	1.422048829474993	-0.4985853567211467	-0.4985853567211295	0.4105705753040886	-0.01138955693723978	-0.1734945628449729	-0.002714164980902296	1.644024214849387e-07	1.952914121742977e-07	-8.191811403853695e-07	1.307775961238604e-06	-2.547747846543343e-08	3.137904906740412e-07	-6.878189453570554e-07
1.55	-0.2056505186833766	0.01561693026659802	0.8671417320356521	0.78295712180946	-0.2247629902713973	-0.1574543226161269	-0.2700917498470481	0.5644888580756883	0.5644888580755822	0.05119639918126744	0.1745324891486674	0.1502648595459696	0.03244861870368493	0.5830689391042514	0.2676939872824606	0.3778829091190656	-2.051119080484204	0.01123486418226635	-0.3144072197533047	0.7705099750541923	-1.780273709605088	-1.780273709605068	0.2999066627961636	1.708016717340319e-06	-0.3984845350077033	-0.08640400129698016	-0.1078434512990335	-0.02966372317008677	0.004725310350799619	-0.2796150255820938	0.1205104959642276	-0.0133323033727997	0.144156539117264	-38.13712772774701	-2.052578222195987	-1.336805494901469	-4.82428941828035	-3.78985555032891	-638.7512605555386	58.75077612895168	0.03990862834915391	0.4348129310951868	-0.6947409157332235	-0.3570959092037692	-0.02498571864834345	-0.4311138226198534	1.337821631274436	-0.3461341858635272	-0.3461341858608578	0.4675071538979379	0.006305733212762948	-0.1443311992390976	-0.033226040815642	1.730211506764355e-07	1.939891250315056e-07	-9.266406622587127e-07	1.301532012650462e-06	-1.330283427961347e-08	3.233102378373983e-07	-7.465823399311837e-07
1.56	-0.1998188803743834	0.01831513022380843	0.8708850782071108	0.7624314168988638	-0.2246513616387959	-0.1606198277698264	-0.262320907675127	0.546671632650014	0.5466716326497201	0.05421744120193521	0.1745324535572536	0.1462736648512045	0.03158376546549506	0.5831697377869917	0.2719010042937576	0.3707115490082973	-2.053724686639574	0.01109024780938537	-0.3186690656197374	0.7835308369889606	-1.782903117555044	-1.782903117555007	0.3042798058719159	-1.459090429981528e-05	-0.3996869036265709	-0.08654964439228666	-0.09969238767081115	-0.03162375548774965	0.004135132513679516	-0.2772482730151953	0.1229708883954462	-0.0142687621673401	0.1371323391729945	-38.84386880536358	-1.123449576964069	-1.482794903602755	-4.912990039497727	-4.004044823640188	-635.261923871002	58.95795094676327	-0.02292048479939565	0.4059818166146129	-0.7396247920488992	-0.1567055058476506	0.006605990922269038	-0.4242663821360964	1.26890202020031	-0.176960281952042	-0.176960281952045	0.3836570070046424	-0.01627882557198586	-0.09233746231467743	0.01766448943528835	1.826029796879516e-07	1.919723338712113e-07	-1.049553758616167e-06	1.288490073155854e-06	3.941483931815629e-10	3.336245741795104e-07	-8.074258466100115e-07
